<svg width="66" height="28" viewBox="0 0 66 28" fill="none" xmlns="http://www.w3.org/2000/svg">
<path d="M63.1654 27.4102V17.2596C63.1654 14.9185 63 13.8075 62.4255 12.6171C61.6866 11.055 60.0832 10.0272 58.3164 10.0272C56.5481 10.0272 54.823 11.055 54.0839 12.535C53.5903 13.6032 53.385 14.9185 53.385 17.3417V27.4102H50.5497V16.7267C50.5497 14.3426 50.2623 12.986 49.4804 11.9593C48.6589 10.7669 47.1381 10.0272 45.6591 10.0272C44.096 10.0272 42.6595 10.8074 41.8371 12.1232C41.1375 13.2326 40.8501 14.6312 40.8501 16.7267V27.4102H38.0143V16.7267C38.0143 13.4385 38.5081 11.6297 39.8227 9.9862C41.2206 8.3012 43.3989 7.27397 45.6591 7.27397C48.2887 7.27397 50.385 8.3833 51.9884 10.6432C53.5903 8.34175 55.6047 7.27397 58.2758 7.27397C60.741 7.27397 63.0425 8.42435 64.4404 10.3564C65.6308 12.0406 66 13.6433 66 17.3004V27.4102H63.1654Z" fill="#2B2B2A"/>
<path d="M34.8086 15.1648C34.8086 19.3145 34.2329 21.5759 32.6708 23.7117C30.8221 26.2184 27.7387 27.7817 24.5339 27.7817C18.9047 27.7817 14.3027 23.1771 14.3027 17.5056C14.3027 11.7945 18.8221 7.2739 24.5339 7.2739C26.9593 7.2739 28.8087 7.89087 30.9042 9.45174V12.9859C28.8087 10.973 26.7951 10.0274 24.4931 10.0274C20.5076 10.0274 17.2192 13.3967 17.2192 17.5481C17.2192 21.657 20.5489 25.028 24.5759 25.028C26.9593 25.028 29.4255 23.7117 30.6992 21.6978C31.6849 20.1792 31.9735 18.6159 31.9735 15.1235V5.72205e-06H34.8086V15.1648Z" fill="#2B2B2A"/>
<path d="M13.3158 10.1091C12.9454 10.0272 12.7394 9.98619 12.4938 9.98619C11.0131 9.98619 9.86272 10.6012 9.20593 11.7518C8.50759 13.0693 8.38469 13.9316 8.0966 17.8771C7.89136 21.2053 7.43858 23.0542 6.45265 24.7397C5.34284 26.6698 3.49389 27.6985 1.3158 27.6985C0.862779 27.6985 0.575923 27.6569 0 27.5756V24.8213C0.49407 24.9032 0.698827 24.9445 1.02821 24.9445C2.38555 24.9445 3.57599 24.2041 4.1937 22.9736C4.89105 21.5757 5.01395 20.7945 5.30204 16.2331C5.67246 10.3972 8.01328 7.23391 11.9186 7.23391C12.206 7.23391 12.7394 7.27397 13.3158 7.35509V10.1091Z" fill="#2B2B2A"/>
</svg>
